<?xml version="1.0" encoding="UTF-8"?>
<svg version="1.1" xmlns="http://www.w3.org/2000/svg" width="512" height="512">
<path d="M0 0 C0.96153026 -0.00226556 1.92306052 -0.00453111 2.91372806 -0.00686532 C6.11452032 -0.01316212 9.31526976 -0.01237874 12.5160675 -0.0115509 C14.81977391 -0.01454511 17.12347981 -0.01794825 19.42718506 -0.02172852 C25.67119733 -0.03054659 31.91519589 -0.03290572 38.15921378 -0.0335443 C42.06486194 -0.03425611 45.97050664 -0.03639292 49.87615395 -0.03904152 C62.81172032 -0.04781132 75.747277 -0.05246213 88.68284621 -0.05171105 C89.37901041 -0.05167109 90.07517461 -0.05163113 90.79243469 -0.05158997 C91.48945792 -0.05154909 92.18648115 -0.0515082 92.90462629 -0.05146609 C104.19163227 -0.05105995 115.47860485 -0.06062333 126.76560118 -0.07472833 C138.38022406 -0.08912715 149.99482915 -0.09581387 161.60946113 -0.09513456 C168.12001372 -0.09488022 174.6305285 -0.0976959 181.14107323 -0.10831261 C187.26835138 -0.11803186 193.39555585 -0.11804659 199.52283669 -0.11079597 C201.76325717 -0.10975485 204.00368234 -0.11208478 206.24409485 -0.11815643 C229.37580107 -0.17675147 249.5891313 1.12621413 267.30244446 17.82121277 C279.82286033 30.99745995 283.68717814 46.36763017 283.5536499 64.15795898 C283.55755292 65.61968753 283.56320132 67.08141226 283.5704208 68.54312819 C283.58504909 72.51901549 283.57507051 76.49450162 283.56068408 80.47037542 C283.54950604 84.77370077 283.56153912 89.07697295 283.57052612 93.3802948 C283.58441258 101.79296754 283.57693734 110.20548951 283.56185054 118.61815498 C283.54494068 128.42248993 283.5482068 138.22678786 283.55194462 148.0311329 C283.55781438 165.52523612 283.54368429 183.01926722 283.51899719 200.51335144 C283.49506064 217.47757162 283.48800122 234.44169552 283.49848938 251.40592957 C283.50990286 269.89985732 283.51182475 288.39374062 283.49739128 306.88766783 C283.4958655 308.86001471 283.49434514 310.83236159 283.49283028 312.80470848 C283.49207246 313.77504317 283.49131465 314.74537786 283.49053387 315.74511662 C283.48579581 322.57538287 283.48763895 329.40562922 283.49189568 336.23589516 C283.49682591 344.55840783 283.49082149 352.88082957 283.47100138 361.20332143 C283.46114202 365.44751083 283.45600972 369.69156185 283.46389389 373.93575859 C283.47096816 377.82351463 283.46410553 381.71099185 283.44629026 385.59871121 C283.44225721 387.00220679 283.44322639 388.40572792 283.44980913 389.80921385 C283.50272924 402.1519246 281.8522842 411.09557949 273.05244446 420.13371277 C270.20899905 422.47687514 267.28431658 424.37087343 264.05244446 426.13371277 C263.43885071 426.47402527 262.82525696 426.81433777 262.19306946 427.16496277 C254.30451925 430.8058321 244.43620486 430.21133301 236.30244446 427.69621277 C231.16226569 425.5619865 227.53589534 422.38075868 223.56416321 418.53996277 C221.09755347 416.17692763 218.54197649 414.06569455 215.86494446 411.94621277 C209.79427784 407.03966546 204.16175531 401.7017066 198.48213196 396.35246277 C194.28435523 392.4005526 189.96953941 388.61025504 185.5749054 384.87931824 C177.87451999 378.33966939 170.3283553 371.6828006 162.93135071 364.80168152 C158.36105266 360.56624927 153.66079783 356.49845086 148.91181946 352.46574402 C142.9335042 347.38002735 137.03445044 342.24679346 131.30244446 336.88371277 C121.42479677 326.55611621 121.42479677 326.55611621 108.80244446 321.82121277 C108.05478821 321.78382996 107.30713196 321.74644714 106.53681946 321.70793152 C100.90054851 322.67389619 96.73007273 327.1728712 92.67744446 330.94621277 C89.4777331 333.89979248 86.2782392 336.84146601 82.98994446 339.69621277 C79.98170917 342.31073219 77.01114197 344.96322933 74.05244446 347.63371277 C70.43220723 350.90075612 66.78260881 354.12892053 63.10322571 357.32902527 C60.79155649 359.36329418 58.51713016 361.43593587 56.23994446 363.50871277 C52.86303464 366.56230144 49.42027314 369.47800482 45.86494446 372.32121277 C39.79427784 377.22776008 34.16175531 382.56571894 28.48213196 387.91496277 C24.28435523 391.86687294 19.96953941 395.65717049 15.5749054 399.3881073 C13.83685124 400.86417158 12.10055631 402.34227756 10.36494446 403.82121277 C9.76593323 404.33063416 9.166922 404.84005554 8.54975891 405.36491394 C4.89496941 408.49292209 1.34028997 411.70211839 -2.15922546 415.00260925 C-12.65694297 424.90248228 -20.5859563 429.69830512 -35.44364929 429.44621277 C-44.62862952 428.6270395 -52.49509436 424.00012159 -58.67021179 417.25090027 C-64.94075441 409.39346357 -67.06933479 401.09624282 -67.07618999 391.10621548 C-67.07941444 389.91444838 -67.08263889 388.72268128 -67.08596104 387.49480003 C-67.08441244 386.19433127 -67.08286384 384.8938625 -67.08126831 383.5539856 C-67.08313734 382.15151472 -67.08543841 380.74904437 -67.08813363 379.34657484 C-67.09424701 375.49728628 -67.09411857 371.64801946 -67.09293926 367.79872715 C-67.09273513 363.64516753 -67.09825529 359.49161486 -67.10299683 355.33805847 C-67.11130209 347.20106517 -67.11405164 339.06407912 -67.1146092 330.92708194 C-67.11508455 324.31024883 -67.11714024 317.69341812 -67.12030983 311.07658577 C-67.12911711 292.30778988 -67.13372925 273.53899971 -67.13297936 254.77020174 C-67.1329394 253.75844407 -67.13289944 252.7466864 -67.13285828 251.70426941 C-67.1328174 250.69127282 -67.13277652 249.67827622 -67.1327344 248.63458277 C-67.13232821 232.22845928 -67.14189074 215.82235878 -67.15599664 199.41624194 C-67.1703733 182.56185262 -67.17726607 165.7074745 -67.17640287 148.8530789 C-67.17607128 139.39424994 -67.1788015 129.93544506 -67.18958092 120.47662163 C-67.19870303 112.42048797 -67.20084724 104.36438928 -67.19407149 96.30825268 C-67.19081453 92.2013606 -67.19071963 88.09453556 -67.19942474 83.98764992 C-67.20732759 80.22032393 -67.20582 76.45311774 -67.19714061 72.68579454 C-67.19489637 70.69346918 -67.20240458 68.70114 -67.21038026 66.70882934 C-67.14630322 49.84907082 -64.11633649 35.81086019 -53.94755554 22.13371277 C-52.86474304 20.61777527 -52.86474304 20.61777527 -51.76005554 19.07121277 C-38.49177074 3.81056571 -19.15729851 -0.03361709 0 0 Z M-36.95146179 35.49308777 C-44.31425406 45.39212372 -45.39033383 54.15370598 -45.32850647 66.31785583 C-45.33196733 67.74924442 -45.33673476 69.18063033 -45.3426882 70.61201072 C-45.35516854 74.52704128 -45.3490415 78.4418514 -45.33972955 82.35688257 C-45.33292744 86.58591331 -45.34342587 90.81490678 -45.35166931 95.04393005 C-45.36499507 103.32022814 -45.36213447 111.59644452 -45.35343139 119.87274578 C-45.34665253 126.59780057 -45.34573899 133.32283248 -45.34900284 140.04788971 C-45.34946254 141.00550167 -45.34992224 141.96311364 -45.35039587 142.94974415 C-45.35135505 144.89514369 -45.35232769 146.84054323 -45.35331364 148.78594276 C-45.36186366 167.01777114 -45.35203852 185.24955423 -45.33591254 203.48137519 C-45.32250112 219.12885671 -45.32484499 234.7762715 -45.33866882 250.42375183 C-45.35471668 268.59714601 -45.36104877 286.77050055 -45.35183203 304.94390082 C-45.35087638 306.88086684 -45.34993327 308.81783286 -45.34900284 310.75479889 C-45.34854001 311.70782259 -45.34807719 312.66084629 -45.34760033 313.6427495 C-45.3450087 320.36262952 -45.34938499 327.08248441 -45.3564415 333.80236053 C-45.36484748 341.98712991 -45.36259501 350.17181296 -45.34659927 358.35657242 C-45.33870571 362.53340234 -45.33564349 366.71008821 -45.34554672 370.88691711 C-45.35447122 374.70866081 -45.34959812 378.5301266 -45.33361407 382.351845 C-45.33025682 383.73590602 -45.3319815 385.11999041 -45.33924143 386.50403646 C-45.3483416 388.38267593 -45.33722859 390.26138098 -45.32507896 392.1400032 C-45.32459191 393.18429182 -45.32410485 394.22858044 -45.32360303 395.30451417 C-44.7390496 399.70241016 -42.78441966 402.29684865 -39.69755554 405.38371277 C-36.23924707 407.58445452 -34.05278185 408.13371277 -29.94755554 408.13371277 C-24.68803954 405.54412733 -20.7071476 402.36979724 -16.51005554 398.32121277 C-15.36486917 397.24109934 -14.21903929 396.16166776 -13.07255554 395.08293152 C-12.25851257 394.31215271 -12.25851257 394.31215271 -11.42802429 393.52580261 C-7.35122791 389.69237699 -3.07139003 386.08701024 1.19306946 382.46574402 C7.71871977 376.91454934 14.11503074 371.27225398 20.37202454 365.41960144 C23.6257611 362.39534257 26.95485365 359.53370779 30.42744446 356.75871277 C35.7085787 352.52456724 40.58961713 347.93632713 45.50288391 343.28874207 C49.92016039 339.13199899 54.49129235 335.26696482 59.23213196 331.48136902 C64.52765911 327.07331941 69.48124614 322.28373443 74.50752258 317.57414246 C84.60395985 308.16058685 93.55086315 300.50229631 107.98994446 300.69621277 C108.78191223 300.70378601 109.57388 300.71135925 110.3898468 300.71916199 C116.35698238 300.88761399 121.02237306 301.75562271 126.05244446 305.13371277 C126.67506165 305.53461121 127.29767883 305.93550964 127.93916321 306.34855652 C133.44365285 310.20058274 138.27282068 314.91376075 143.18525696 319.47746277 C147.75284219 323.70901312 152.4513018 327.77589832 157.19697571 331.80558777 C163.72171307 337.3550486 170.11636595 342.99642048 176.37202454 348.8478241 C179.6257611 351.87208297 182.95485365 354.73371775 186.42744446 357.50871277 C191.7085787 361.74285829 196.58961713 366.33109841 201.50288391 370.97868347 C205.92362051 375.13868259 210.49789561 379.00697765 215.24385071 382.79386902 C218.63492664 385.61897957 221.83912866 388.60990021 225.05244446 391.63371277 C229.31014899 395.6149505 233.57315247 399.57884944 237.98994446 403.38371277 C238.8033429 404.09011902 239.61674133 404.79652527 240.45478821 405.52433777 C243.70118163 407.53563715 246.26175451 407.919228 250.05244446 408.13371277 C254.24971523 406.57002366 257.16593559 404.55476032 260.05244446 401.13371277 C261.10866744 397.96504384 261.17988864 395.73285885 261.18387222 392.40450954 C261.18771337 391.20293191 261.19155451 390.00135428 261.19551206 388.76336521 C261.19473177 387.42314551 261.19385297 386.08292587 261.19288635 384.7427063 C261.19546936 383.32418711 261.19848233 381.90566865 261.20188975 380.48715121 C261.20997096 376.57968878 261.21174995 372.67224471 261.21248722 368.76477492 C261.21433589 364.55395808 261.2218824 360.3431508 261.22862244 356.13233948 C261.24221538 346.9193309 261.24823229 337.70632667 261.25263309 328.49330974 C261.25539453 322.74076352 261.25963176 316.98821898 261.26413727 311.2356739 C261.2763324 295.30984954 261.28663044 279.38402653 261.29001236 263.45819759 C261.29023193 262.4384927 261.29045149 261.4187878 261.29067771 260.36818275 C261.29089599 259.34602459 261.29111427 258.32386643 261.29133916 257.27073377 C261.29178263 255.19942534 261.29222919 253.12811691 261.29267883 251.05680847 C261.29290026 250.02936598 261.29312169 249.0019235 261.29334983 247.94334639 C261.29729621 231.30220015 261.31474425 214.66109775 261.33803836 198.01996844 C261.36175889 180.93629596 261.37421457 163.85264546 261.37538028 146.76895624 C261.37629677 137.17658354 261.38204244 127.58426791 261.40019989 117.99191093 C261.4156105 109.82178931 261.42071576 101.65174238 261.41246179 93.48160898 C261.40855836 89.31431964 261.40946973 85.14718068 261.42351913 80.9799099 C261.43627684 77.16076244 261.43504425 73.34187808 261.42292842 69.52273089 C261.4200529 67.49523145 261.43189316 65.46772738 261.44435048 63.44026417 C261.37356212 50.33678295 258.41206709 40.52158731 249.01728821 31.09074402 C236.53828839 20.46887303 221.92793458 21.55710588 206.48213196 21.61613464 C204.0959175 21.61070823 201.7097064 21.60358266 199.32350159 21.59489441 C193.53779056 21.57860336 187.75231312 21.58091167 181.96659517 21.59254497 C177.26063621 21.60161207 172.55473535 21.60278921 167.84877014 21.59844971 C166.84062376 21.59753031 166.84062376 21.59753031 165.81211078 21.59659234 C164.44636995 21.59531332 163.08062913 21.59401646 161.71488833 21.59270197 C148.93560209 21.58132057 136.156431 21.59437141 123.37716365 21.61590344 C112.43357985 21.63377223 101.49016582 21.63066744 90.54658508 21.61222839 C77.81019615 21.59077838 65.07390791 21.58241898 52.33750343 21.59467745 C50.9770419 21.59595152 49.61658034 21.59720901 48.25611877 21.59844971 C47.58690427 21.59906681 46.91768976 21.59968391 46.22819602 21.60031971 C41.5328483 21.60376026 36.83756493 21.59797238 32.14222717 21.58853149 C25.81208969 21.57693944 19.48227143 21.5850604 13.15216827 21.60810852 C10.83512145 21.61337764 8.51804755 21.61191281 6.20101166 21.60305786 C-10.58415224 21.54484615 -25.25883189 21.72632663 -36.95146179 35.49308777 Z " fill="#000000" transform="translate(147.9475555419922,39.86628723144531)"/>
</svg>
